<?xml version="1.0" encoding="UTF-8"?>
<svg id="Iranian_Wikimedians_User_Group_Logo" data-name="Iranian Wikimedians User Group Logo" xmlns="http://www.w3.org/2000/svg" viewBox="0 0 1631.62 484.29">
  <defs>
    <style>
      .cls-1, .cls-2, .cls-3, .cls-4, .cls-5, .cls-6 {
        stroke-width: 0px;
      }

      .cls-1, .cls-7 {
        fill: #000;
      }

      .cls-2 {
        fill: #666;
      }

      .cls-3 {
        fill: #396;
      }

      .cls-4 {
        fill: #069;
      }

      .cls-5 {
        fill: #900;
      }

      .cls-7 {
        stroke: #000;
        stroke-width: 3px;
      }

      .cls-6 {
        fill: #484848;
      }
    </style>
  </defs>
  <g id="Title">
    <g id="g3527">
      <path id="path7260-8" class="cls-2" d="M558.56,381.15v-23.15h-6.66v23.15c.05,5.21,1.59,9.28,4.6,12.2,3.03,2.92,7.23,4.41,12.61,4.45,5.39-.05,9.58-1.53,12.58-4.45s4.53-6.99,4.58-12.2v-23.15h-6.66v23.15c-.03,3.38-.97,6.01-2.81,7.85-1.84,1.85-4.39,2.8-7.63,2.82-3.28-.02-5.86-.98-7.75-2.84-1.88-1.86-2.83-4.48-2.88-7.84h.02,0Z"/>
      <path id="path7262-2" class="cls-2" d="M648.9,367.66l2.76-5.87c-1.86-1.23-3.98-2.21-6.36-2.95s-4.87-1.1-7.47-1.12c-4.35.03-7.83,1.02-10.42,2.97s-3.91,4.63-3.98,8.05c.12,3.43,1.22,5.93,3.34,7.49,2.11,1.57,4.56,2.72,7.33,3.45,2.77.73,5.23,1.55,7.33,2.46,2.11.91,3.22,2.43,3.34,4.55-.02,1.53-.67,2.72-1.96,3.55s-3.1,1.24-5.43,1.25c-2.15,0-4.41-.51-6.76-1.48-2.35-.97-4.56-2.41-6.63-4.28l-2.88,5.75c2.06,1.89,4.49,3.41,7.27,4.53,2.79,1.13,5.74,1.7,8.87,1.74,4.42-.03,8-1.05,10.72-3.06,2.72-2,4.11-4.79,4.19-8.34-.09-3.48-1.2-6.02-3.3-7.64-2.11-1.62-4.55-2.81-7.32-3.58s-5.21-1.61-7.33-2.53c-2.11-.92-3.22-2.42-3.34-4.49.02-1.34.61-2.35,1.76-3.06s2.7-1.06,4.68-1.07c1.52,0,3.29.28,5.31.86s4.1,1.52,6.27,2.81h0Z"/>
      <path id="path7264-4" class="cls-2" d="M688.97,358v39.52h28.91v-5.99h-22.25v-10.9h19.31v-5.93h-19.31v-10.73h21.57v-5.99h-28.23v.02h0Z"/>
      <path id="path7266-5" class="cls-2" d="M787.7,397.52l-8.86-13.21c2.64-1.02,4.66-2.62,6.07-4.8,1.4-2.18,2.11-4.85,2.13-8.02-.03-4.32-1.43-7.64-4.17-9.97-2.75-2.33-6.66-3.5-11.75-3.53h-16.03v39.52h6.66v-11.91h9.37c.63,0,1.23,0,1.81-.06l7.23,11.97h7.56-.02,0ZM761.72,379.63v-15.64h9.37c3.07,0,5.43.62,7.09,1.89,1.66,1.27,2.5,3.2,2.51,5.79-.02,2.68-.85,4.67-2.51,6-1.66,1.31-4.02,1.97-7.09,1.97h-9.37Z"/>
      <path id="path7268-5" class="cls-2" d="M897.97,389.11c-1.43.85-2.94,1.52-4.5,1.99-1.58.47-3.1.71-4.59.73-4.13-.09-7.55-1.45-10.26-4.06s-4.1-5.95-4.2-9.99c.09-4.02,1.48-7.33,4.17-9.94s6.09-3.97,10.23-4.06c2.08.01,4.12.41,6.1,1.2,1.98.78,3.75,1.9,5.31,3.31l3.79-4.91c-1.98-1.71-4.29-3.06-6.94-4.04-2.64-.98-5.39-1.47-8.25-1.5-6.12.13-11.14,2.04-15.08,5.73-3.94,3.69-5.96,8.43-6.1,14.2.14,5.78,2.14,10.53,6.01,14.26,3.87,3.73,8.79,5.66,14.77,5.79,2.76-.02,5.5-.49,8.21-1.43,2.72-.93,5.1-2.16,7.15-3.72v-14.57h-5.81v11.01h.01-.02Z"/>
      <path id="path7270-1" class="cls-2" d="M974.85,397.52l-8.86-13.21c2.64-1.02,4.66-2.62,6.07-4.8,1.4-2.18,2.11-4.85,2.13-8.02-.03-4.32-1.43-7.64-4.17-9.97-2.75-2.33-6.66-3.5-11.75-3.53h-16.03v39.52h6.66v-11.91h9.37c.63,0,1.23,0,1.81-.06l7.23,11.97h7.56-.02ZM948.87,379.63v-15.64h9.37c3.07,0,5.43.62,7.09,1.89,1.66,1.27,2.5,3.2,2.51,5.79-.02,2.68-.85,4.67-2.51,6-1.66,1.31-4.02,1.97-7.09,1.97h-9.37Z"/>
      <path id="path7272-7" class="cls-2" d="M1029.73,357.83c-6.03.13-11,2.03-14.89,5.71-3.9,3.68-5.92,8.43-6.04,14.23.14,5.78,2.15,10.53,6.04,14.26,3.9,3.73,8.86,5.66,14.89,5.79,6.03-.13,11-2.06,14.89-5.79,3.9-3.73,5.92-8.48,6.04-14.26-.14-5.77-2.15-10.51-6.04-14.2-3.9-3.69-8.86-5.61-14.89-5.73h0ZM1029.78,363.81c3.97.09,7.29,1.44,9.93,4.03,2.65,2.6,4.03,5.9,4.13,9.92-.1,4.02-1.47,7.34-4.13,9.97-2.65,2.62-5.96,3.99-9.93,4.09-3.98-.09-7.32-1.46-10.01-4.09-2.7-2.62-4.11-5.95-4.21-9.97.1-4.02,1.51-7.32,4.19-9.92,2.69-2.6,6.03-3.94,10.04-4.03h-.01Z"/>
      <path id="path7274-1" class="cls-2" d="M1092.74,381.15v-23.15h-6.66v23.15c.05,5.21,1.59,9.28,4.6,12.2,3.01,2.92,7.23,4.41,12.61,4.45,5.39-.05,9.58-1.53,12.58-4.45s4.53-6.99,4.58-12.2v-23.15h-6.66v23.15c-.03,3.38-.97,6.01-2.81,7.85-1.84,1.85-4.39,2.8-7.63,2.82-3.28-.02-5.86-.98-7.75-2.84-1.88-1.86-2.83-4.48-2.88-7.84h.02Z"/>
      <path id="path7276-1" class="cls-2" d="M1174.78,358h-15.76v39.52h6.66v-11.91h9.09c5-.03,8.85-1.27,11.54-3.72,2.69-2.44,4.06-5.92,4.1-10.4-.03-4.32-1.39-7.64-4.1-9.97-2.69-2.33-6.55-3.5-11.54-3.53h.01ZM1174.5,379.63h-8.81v-15.64h8.81c3.06,0,5.42.62,7.06,1.89,1.63,1.27,2.46,3.2,2.49,5.79-.01,2.68-.84,4.67-2.49,6-1.63,1.31-3.99,1.97-7.06,1.97h0Z"/>
    </g>
    <g id="g3542">
      <path id="path12425" class="cls-1" d="M1559.25,284.3v-.28c0-4.27-.67-7.93-2.01-10.99-1.34-3.06-3.34-5.73-5.99-8s-5.89-4.22-9.74-5.85c-3.86-1.62-8.23-3.08-13.14-4.39-4.18-1.12-7.63-2.08-10.37-2.92s-4.89-1.71-6.47-2.65-2.67-1.97-3.27-3.13c-.6-1.16-.91-2.53-.91-4.11v-.28c0-2.42,1.05-4.43,3.13-6.05s5.21-2.44,9.39-2.44,8.34.86,12.52,2.58,8.45,4.06,12.81,7.03l11.13-16.15c-5.01-3.99-10.51-7.06-16.49-9.18s-12.55-3.2-19.69-3.2c-5.01,0-9.6.69-13.78,2.08s-7.77,3.38-10.78,5.99c-3.01,2.61-5.36,5.69-7.03,9.25s-2.51,7.58-2.51,12.04v.28c0,4.82.76,8.86,2.29,12.11,1.53,3.25,3.68,5.96,6.47,8.14,2.79,2.18,6.17,4.02,10.16,5.5,3.99,1.48,8.44,2.83,13.36,4.04,4.09,1.02,7.4,1.99,9.96,2.92s4.55,1.85,5.99,2.79,2.42,1.92,2.92,2.99c.51,1.07.77,2.29.77,3.68v.28c0,2.88-1.23,5.12-3.68,6.74-2.46,1.62-5.92,2.44-10.37,2.44-5.57,0-10.69-1.07-15.38-3.2-4.68-2.13-9.25-5.01-13.71-8.63l-12.66,15.17c5.85,5.28,12.34,9.21,19.49,11.76,7.15,2.56,14.43,3.83,21.86,3.83,5.29,0,10.12-.67,14.48-2.01s8.11-3.29,11.27-5.85c3.15-2.56,5.62-5.71,7.38-9.46,1.76-3.75,2.65-8.05,2.65-12.87h-.05Z"/>
      <path id="path3559" class="cls-1" d="M586.48,272.33l17.28-56.05h22.65l17.14,56.05,19.31-56.05h23.53l-33.98,97.44h-16.11l-21.35-67.82-21.2,67.82h-16.11l-33.98-97.44h23.53l19.31,56.05h-.02Z"/>
      <path id="path3561" class="cls-1" d="M698.15,216.27h21.79v97.44h-21.79v-97.44Z"/>
      <path id="path3563" class="cls-1" d="M743.9,216.27h21.79v40.08l36.74-40.08h26.86l-38.78,43.13c3.34,4.65,9.59,13.36,18.59,25.99,9,12.64,15.69,22.08,20.19,28.31h-25.41l-28.46-38.48-9.73,10.89v27.59h-21.79v-97.44h0Z"/>
      <path id="path3565" class="cls-1" d="M842.8,216.27h21.79v97.44h-21.79v-97.44Z"/>
      <path id="path3567" class="cls-1" d="M975.81,252.43l-26.29,53.29h-13.08l-26.14-53.29v61.28h-21.79v-97.44h29.48l25.13,53.59,25.26-53.59h29.34v97.44h-21.79v-61.28h-.15.03Z"/>
      <path id="path3569" class="cls-1" d="M1091.84,216.27v19.31h-48.5v20.04h43.56v18.59h-43.56v20.19h49.95v19.16h-71.74v-97.44h70.29v.15Z"/>
      <path id="path3571" class="cls-1" d="M1187.1,229.06c9.29,8.56,13.94,20.33,13.94,35.44s-4.5,27.15-13.65,36.01c-9,8.86-22.94,13.21-41.53,13.21h-33.25v-97.44h34.41c17.58,0,30.79,4.36,40.08,12.78h0ZM1171.14,287c5.38-5.09,7.99-12.34,7.99-21.93s-2.61-16.99-7.99-22.08c-5.38-5.23-13.5-7.7-24.54-7.7h-12.2v59.25h13.8c10.02,0,17.71-2.46,22.94-7.55h0Z"/>
      <path id="path3573" class="cls-1" d="M1219.93,216.27h21.79v97.44h-21.79v-97.44Z"/>
      <path id="path3575" class="cls-1" d="M1335.08,313.71l-9-21.05h-40.8l-9,21.05h-23.09l42.11-97.44h21.05l42.11,97.44h-23.39.01ZM1305.6,245.32l-12.2,28.31h24.4l-12.2-28.31h0Z"/>
      <g id="text2985">
        <path id="path4585" class="cls-7" d="M1372.83,217.68v93.85h17.47v-67.3l55.22,67.3h17.17v-93.85h-17.17v67.44l-55.52-67.44h-17.17,0Z"/>
      </g>
    </g>
    <g id="text9094">
      <path id="path9096" class="cls-6" d="M574.81,168.63v-71.25h-15.68v71.25h15.68Z"/>
      <path id="path9098" class="cls-6" d="M662.37,168.63l-17.4-25.45c4.55-1.69,8.21-4.34,10.99-7.94,2.85-3.66,4.27-8.38,4.27-14.15v-.21c0-7.4-2.37-13.17-7.12-17.3-4.68-4.14-11.27-6.2-19.74-6.2h-32.57v71.25h15.68v-22.8h12.32l15.26,22.8h18.32-.01ZM644.36,121.91c0,3.05-1.05,5.49-3.15,7.33-2.04,1.83-4.98,2.75-8.85,2.75h-15.87v-20.45h15.57c3.87,0,6.88.85,9.06,2.54s3.26,4.24,3.26,7.63v.21h-.02Z"/>
      <path id="path9100" class="cls-6" d="M751.94,168.63l-30.54-71.75h-14.46l-30.54,71.75h15.98l6.51-15.98h30.12l6.51,15.98h16.42ZM723.44,138.81h-18.93l9.46-23.1,9.46,23.1h.01,0Z"/>
      <path id="path9102" class="cls-6" d="M834.31,168.63v-71.25h-15.47v43.86l-33.38-43.86h-14.46v71.25h15.47v-45.29l34.51,45.29h13.33Z"/>
      <path id="path9104" class="cls-6" d="M875.87,168.63v-71.25h-15.68v71.25h15.68Z"/>
      <path id="path9106" class="cls-6" d="M971.27,168.63l-30.54-71.75h-14.46l-30.54,71.75h15.98l6.51-15.98h30.12l6.51,15.98h16.42ZM942.77,138.81h-18.93l9.46-23.1,9.46,23.1h.01Z"/>
      <path id="path9108" class="cls-6" d="M1053.64,168.63v-71.25h-15.47v43.86l-33.38-43.86h-14.46v71.25h15.47v-45.29l34.51,45.29h13.33Z"/>
    </g>
  </g>
  <path id="Red_path" data-name="Red path" class="cls-5" d="M279.18,48.1c-64.9,0-122.23,32.56-156.56,82.23l36.77,21.24c26.89-37.07,70.53-61.21,119.78-61.21s92.9,24.14,119.78,61.21l36.77-21.24c-34.32-49.66-91.65-82.23-156.56-82.23h.02Z"/>
  <path id="Blue_path_left" data-name="Blue path left" class="cls-4" d="M102.62,167.59c-8.77,21.86-13.6,45.71-13.6,70.68,0,97.83,74,178.51,169.06,189.01v-42.63c-71.64-10.27-126.79-71.91-126.79-146.38,0-17.28,2.97-33.86,8.43-49.28l-37.08-21.4h-.02,0Z"/>
  <path id="Blue_path_right" data-name="Blue path right" class="cls-4" d="M455.77,167.59l-37.08,21.4c5.46,15.42,8.43,32.01,8.43,49.28,0,74.47-55.13,136.11-126.79,146.38v42.63c95.05-10.52,169.06-91.18,169.06-189.01,0-24.98-4.85-48.84-13.6-70.68h-.02,0Z"/>
  <path id="Up" class="cls-5" d="M279.68,145.29c4.44.26,7.55,8.6,9.44,12.7,1.66,3.95,2.87,8.37,1.38,12.51-1.59,4.49-5.93,8.59-10.88,8.43-5.9-.43-10.58-6.24-11.11-11.92-.25-2.64.35-5.47,1.38-8.26,1.86-4.28,4.9-12.87,9.67-13.43h.12v-.03h0Z"/>
  <path id="Center" class="cls-3" d="M203.61,160.2c31.19,1.77,56.46,20.79,76.53,43.24,20.57-23.28,47.39-41.64,79.24-43.79-.55,32.35-20.07,59-43.18,79.8,22.67,20.02,40.86,45.45,43.74,76.43-31.13-2.33-56.24-21.35-76.92-43.18-20.63,23.33-47.62,41.37-79.46,43.58,1.66-32.08,19.91-59.28,43.63-79.62-22.18-20.29-40.97-45.45-43.58-76.43h0v-.03h0Z"/>
  <path id="Left" class="cls-5" d="M185.28,237.71c.39-5.17,11.35-9.04,15.95-11.03,4.26-1.63,9.07-2.9,13.41-1.04,4.2,1.77,7.93,6.12,8.48,10.81.55,5.39-3.56,10.67-8.05,13.06-3.72,1.98-8.06,1.44-11.94.09-4.83-1.9-17.56-6.45-17.86-11.79v-.12.02h0Z"/>
  <path id="Right" class="cls-5" d="M349.95,225.94c6.4-1.61,14,3.28,19.42,6.71,8.54,6.01.78,10.96-6.51,14.58-2.61,1.3-5.31,2.59-8.17,3.15-7.08,1.7-14.59-4.45-14.96-11.52-.16-5.2,5.02-11.44,10.06-12.87l.17-.05h0Z"/>
  <path id="Down" class="cls-5" d="M270.82,307.1c1.54-5.12,7.84-10.42,13.34-9.81,5.92.89,11.79,6.57,11.99,12.78.15,3.69-1.77,7.91-3.89,11.81-2.76,4.72-5.96,11.15-11.34,8.48-2.54-1.54-4.13-4.27-5.66-6.87-2.62-4.73-6.05-11.1-4.5-16.23l.05-.16h.01Z"/>
</svg>