<?xml version="1.0" encoding="UTF-8" standalone="no"?>
<!-- Created with Inkscape (http://www.inkscape.org/) -->

<svg
   width="110mm"
   height="110mm"
   viewBox="0 0 110 110"
   version="1.1"
   id="svg184"
   inkscape:version="1.2.2 (b0a8486541, 2022-12-01)"
   sodipodi:docname="Iranian_Wikimedians_User_Group_Logo_- no text.svg"
   xmlns:inkscape="http://www.inkscape.org/namespaces/inkscape"
   xmlns:sodipodi="http://sodipodi.sourceforge.net/DTD/sodipodi-0.dtd"
   xmlns="http://www.w3.org/2000/svg"
   xmlns:svg="http://www.w3.org/2000/svg">
  <sodipodi:namedview
     id="namedview186"
     pagecolor="#ffffff"
     bordercolor="#000000"
     borderopacity="0.25"
     inkscape:showpageshadow="2"
     inkscape:pageopacity="0.0"
     inkscape:pagecheckerboard="0"
     inkscape:deskcolor="#d1d1d1"
     inkscape:document-units="mm"
     showgrid="false"
     showguides="false"
     inkscape:lockguides="false"
     inkscape:zoom="3.0859147"
     inkscape:cx="212.74081"
     inkscape:cy="194.10776"
     inkscape:window-width="1920"
     inkscape:window-height="1043"
     inkscape:window-x="3840"
     inkscape:window-y="0"
     inkscape:window-maximized="1"
     inkscape:current-layer="layer1" />
  <defs
     id="defs181" />
  <g
     inkscape:label="Ebene 1"
     inkscape:groupmode="layer"
     id="layer1">
    <path
       id="Red_path"
       data-name="Red path"
       class="cls-5"
       d="m 54.993389,4.8376439 c -17.171458,0 -32.34002,8.6148331 -41.423166,21.7566871 l 9.728729,5.61975 c 7.114646,-9.808104 18.661062,-16.195145 31.691791,-16.195145 13.030729,0 24.579792,6.387041 31.691792,16.195145 l 9.728729,-5.61975 C 87.330764,13.455123 72.162201,4.8376439 54.988098,4.8376439 Z"
       style="fill:#990000;stroke-width:0px" />
    <path
       id="Blue_path_left"
       data-name="Blue path left"
       class="cls-4"
       d="m 8.2785551,36.452706 c -2.3203947,5.783792 -3.5983327,12.094104 -3.5983327,18.70075 0,25.884187 19.5791666,47.230774 44.7304586,50.008904 V 93.883162 C 30.455931,91.165892 15.86416,74.856977 15.86416,55.153456 c 0,-4.572 0.785813,-8.958792 2.230438,-13.038666 L 8.2838471,36.452706 Z"
       style="fill:#006699;stroke-width:0px" />
    <path
       id="Blue_path_right"
       data-name="Blue path right"
       class="cls-4"
       d="m 101.71616,36.452706 -9.810751,5.662084 c 1.444625,4.079874 2.230438,8.469312 2.230438,13.038666 0,19.703521 -14.586479,36.012436 -33.54652,38.729706 v 11.279198 c 25.148645,-2.78342 44.730453,-24.124717 44.730453,-50.008904 0,-6.609292 -1.28322,-12.92225 -3.59833,-18.70075 z"
       style="fill:#006699;stroke-width:0px" />
    <path
       id="Up"
       class="cls-5"
       d="m 55.125681,30.552498 c 1.17475,0.06879 1.997604,2.275417 2.497667,3.360208 0.439208,1.045104 0.759354,2.214563 0.365125,3.309938 -0.420688,1.187979 -1.56898,2.272771 -2.878667,2.230437 -1.561042,-0.113771 -2.799292,-1.651 -2.939521,-3.153833 -0.06615,-0.6985 0.0926,-1.447271 0.365125,-2.185458 0.492125,-1.132417 1.296459,-3.405188 2.558521,-3.553354 h 0.03175 z"
       style="fill:#990000;stroke-width:0px" />
    <path
       id="Center"
       class="cls-3"
       d="m 34.998827,34.497435 c 8.252354,0.468313 14.938375,5.500688 20.248562,11.440584 5.442479,-6.1595 12.538604,-11.01725 20.965583,-11.586104 -0.145521,8.55927 -5.310187,15.610416 -11.424708,21.113749 5.998104,5.296959 10.810875,12.025313 11.572875,20.222104 C 68.12466,75.071289 61.480973,70.038914 56.009389,64.26306 50.551035,70.435789 43.409931,75.208872 34.985598,75.793602 35.424806,67.305768 40.253452,60.109102 46.529368,54.727477 40.66091,49.359081 35.689389,42.702165 34.998827,34.505373 v 0 z"
       style="fill:#339966;stroke-width:0px" />
    <path
       id="Left"
       class="cls-5"
       d="m 30.149014,55.005289 c 0.103188,-1.367895 3.003021,-2.391833 4.220104,-2.918354 1.127125,-0.431271 2.399771,-0.767291 3.548063,-0.275166 1.11125,0.468312 2.098146,1.61925 2.243667,2.860145 0.14552,1.426105 -0.941917,2.823105 -2.129896,3.455459 -0.98425,0.523875 -2.132542,0.381 -3.159125,0.02381 -1.277938,-0.502708 -4.646083,-1.706562 -4.725458,-3.119437 v -0.03175 0.0053 0 z"
       style="fill:#990000;stroke-width:0px" />
    <path
       id="Right"
       class="cls-5"
       d="m 73.717951,51.891144 c 1.693334,-0.42598 3.704167,0.867833 5.138209,1.775354 2.259541,1.590146 0.206375,2.899833 -1.722438,3.857625 -0.690562,0.343958 -1.404937,0.685271 -2.161646,0.833437 -1.87325,0.449792 -3.86027,-1.177396 -3.958166,-3.048 -0.04233,-1.375833 1.328208,-3.026833 2.661708,-3.405187 l 0.04498,-0.01323 v 0 z"
       style="fill:#990000;stroke-width:0px" />
    <path
       id="Down"
       class="cls-5"
       d="m 52.781473,73.364727 c 0.407458,-1.354667 2.074333,-2.756959 3.529541,-2.595563 1.566334,0.235479 3.119438,1.738313 3.172354,3.381375 0.03969,0.976313 -0.468312,2.092854 -1.029229,3.124729 -0.73025,1.248834 -1.576916,2.950104 -3.000375,2.243667 -0.672041,-0.407458 -1.092729,-1.129771 -1.497541,-1.817688 -0.693209,-1.251479 -1.600729,-2.936875 -1.190625,-4.294187 l 0.01323,-0.04233 z"
       style="fill:#990000;stroke-width:0px" />
  </g>
</svg>
