<?xml version="1.0" encoding="UTF-8"?>
<svg id="Iranian_Wikimedians_User_Group_Logo" data-name="Iranian Wikimedians User Group Logo" xmlns="http://www.w3.org/2000/svg" viewBox="0 0 746.64 546.11">
  <defs>
    <style>
      .cls-1 {
        fill: #000;
      }

      .cls-1, .cls-2, .cls-3, .cls-4, .cls-5, .cls-6 {
        stroke-width: 0px;
      }

      .cls-7 {
        fill: #000100;
        stroke: #000;
        stroke-width: 3px;
      }

      .cls-2 {
        fill: #666;
      }

      .cls-3 {
        fill: #396;
      }

      .cls-4 {
        fill: #069;
      }

      .cls-5 {
        fill: #900;
      }

      .cls-6 {
        fill: #484848;
      }
    </style>
  </defs>
  <g id="layer1-2" data-name="layer1">
    <g id="g3527">
      <path id="path7260-8" class="cls-2" d="M154.58,498.11v-15.94h-4.59v15.94c.03,3.59,1.09,6.39,3.17,8.4s4.98,3.03,8.68,3.07c3.71-.03,6.6-1.06,8.67-3.07,2.07-2.01,3.12-4.81,3.15-8.4v-15.94h-4.59v15.94c-.02,2.33-.67,4.13-1.93,5.41s-3.02,1.92-5.26,1.94c-2.26-.02-4.04-.67-5.33-1.95-1.29-1.28-1.95-3.08-1.98-5.39Z"/>
      <path id="path7262-2" class="cls-2" d="M216.79,488.82l1.91-4.04c-1.28-.85-2.74-1.52-4.38-2.03s-3.35-.76-5.14-.77c-3,.02-5.39.7-7.17,2.04-1.78,1.34-2.7,3.18-2.74,5.54.08,2.36.84,4.08,2.3,5.16,1.45,1.08,3.14,1.87,5.05,2.37,1.91.5,3.6,1.07,5.05,1.7s2.22,1.67,2.3,3.13c-.01,1.06-.46,1.87-1.35,2.44s-2.14.86-3.74.87c-1.48,0-3.04-.35-4.65-1.02-1.62-.68-3.14-1.66-4.56-2.95l-1.98,3.97c1.42,1.3,3.09,2.34,5.01,3.12,1.92.78,3.95,1.18,6.11,1.2,3.05-.02,5.51-.72,7.38-2.1s2.83-3.3,2.89-5.75c-.07-2.39-.82-4.14-2.27-5.26-1.45-1.11-3.13-1.94-5.04-2.46s-3.59-1.11-5.05-1.74-2.22-1.66-2.3-3.09c.02-.92.42-1.62,1.21-2.1s1.86-.73,3.22-.73c1.05,0,2.27.19,3.65.59,1.38.4,2.82,1.05,4.32,1.93h0Z"/>
      <path id="path7264-4" class="cls-2" d="M244.37,482.17v27.22h19.91v-4.12h-15.32v-7.5h13.3v-4.08h-13.3v-7.39h14.85v-4.12h-19.44Z"/>
      <path id="path7266-5" class="cls-2" d="M312.36,509.39l-6.1-9.1c1.82-.71,3.21-1.81,4.17-3.3.97-1.5,1.45-3.34,1.46-5.52-.02-2.97-.98-5.26-2.87-6.86-1.89-1.6-4.59-2.41-8.09-2.43h-11.04v27.22h4.59v-8.2h6.45c.43,0,.85,0,1.24-.04l4.98,8.24h5.21ZM294.48,497.06v-10.77h6.45c2.11,0,3.74.43,4.88,1.3,1.14.87,1.72,2.2,1.73,3.99-.01,1.84-.59,3.22-1.73,4.13-1.14.91-2.77,1.36-4.88,1.36h-6.45Z"/>
      <path id="path7268-5" class="cls-2" d="M388.3,503.6c-.99.59-2.02,1.04-3.1,1.37-1.08.33-2.14.49-3.16.5-2.85-.06-5.2-1-7.06-2.8-1.86-1.8-2.82-4.1-2.89-6.88.07-2.77,1.02-5.05,2.87-6.85,1.85-1.8,4.2-2.73,7.04-2.79,1.44,0,2.84.28,4.2.83,1.36.54,2.58,1.3,3.65,2.28l2.6-3.38c-1.37-1.18-2.96-2.11-4.78-2.78-1.82-.67-3.71-1.02-5.68-1.03-4.21.09-7.67,1.4-10.38,3.95-2.71,2.55-4.11,5.8-4.2,9.78.09,3.98,1.47,7.25,4.14,9.82,2.66,2.57,6.05,3.9,10.17,3.99,1.9-.02,3.79-.34,5.65-.98,1.87-.64,3.51-1.49,4.92-2.56v-10.03h-4v7.58Z"/>
      <path id="path7270-1" class="cls-2" d="M441.24,509.39l-6.1-9.1c1.82-.71,3.21-1.81,4.17-3.3.97-1.5,1.45-3.34,1.46-5.52-.02-2.97-.98-5.26-2.87-6.86-1.89-1.6-4.59-2.41-8.09-2.43h-11.04v27.22h4.59v-8.2h6.45c.43,0,.85,0,1.24-.04l4.98,8.24h5.21ZM423.35,497.06v-10.77h6.45c2.11,0,3.74.43,4.88,1.3,1.14.87,1.72,2.2,1.73,3.99-.01,1.84-.59,3.22-1.73,4.13-1.14.91-2.77,1.36-4.88,1.36h-6.45Z"/>
      <path id="path7272-7" class="cls-2" d="M479.03,482.06c-4.16.08-7.58,1.39-10.26,3.93-2.68,2.54-4.07,5.8-4.17,9.79.09,3.98,1.48,7.25,4.17,9.82s6.1,3.9,10.26,3.99c4.16-.09,7.58-1.42,10.26-3.99,2.68-2.57,4.07-5.84,4.17-9.82-.09-3.97-1.48-7.23-4.17-9.78-2.68-2.55-6.1-3.86-10.26-3.95ZM479.07,486.18c2.73.06,5.01.99,6.84,2.78,1.82,1.79,2.77,4.06,2.84,6.83-.07,2.77-1.02,5.06-2.84,6.87-1.82,1.81-4.1,2.75-6.84,2.81-2.74-.07-5.04-1-6.9-2.81-1.86-1.81-2.83-4.1-2.9-6.87.07-2.76,1.04-5.04,2.89-6.83,1.85-1.79,4.16-2.71,6.91-2.78h0Z"/>
      <path id="path7274-1" class="cls-2" d="M522.42,498.11v-15.94h-4.59v15.94c.03,3.59,1.09,6.39,3.17,8.4,2.08,2.01,4.98,3.03,8.68,3.07,3.71-.03,6.6-1.06,8.67-3.07,2.07-2.01,3.12-4.81,3.15-8.4v-15.94h-4.59v15.94c-.02,2.33-.67,4.13-1.93,5.41-1.27,1.28-3.02,1.92-5.26,1.94-2.26-.02-4.04-.67-5.33-1.95-1.29-1.28-1.95-3.08-1.98-5.39Z"/>
      <path id="path7276-1" class="cls-2" d="M578.92,482.17h-10.85v27.22h4.59v-8.2h6.26c3.44-.02,6.09-.87,7.95-2.56,1.86-1.68,2.8-4.07,2.82-7.16-.02-2.97-.96-5.26-2.82-6.86-1.86-1.6-4.51-2.41-7.95-2.43h0ZM578.72,497.06h-6.07v-10.77h6.07c2.11,0,3.73.43,4.86,1.3,1.13.87,1.7,2.2,1.71,3.99-.01,1.84-.58,3.22-1.71,4.13-1.13.91-2.75,1.36-4.86,1.36h0Z"/>
    </g>
    <g id="g3542">
      <path id="path12425" class="cls-1" d="M723.57,431.43v-.19c0-2.94-.46-5.46-1.39-7.57-.93-2.11-2.3-3.95-4.12-5.51-1.82-1.56-4.06-2.91-6.71-4.02-2.65-1.12-5.67-2.12-9.05-3.02-2.88-.77-5.26-1.44-7.14-2.01-1.88-.58-3.37-1.18-4.46-1.82-1.09-.64-1.84-1.36-2.25-2.16-.42-.8-.62-1.74-.62-2.83v-.19c0-1.66.72-3.05,2.16-4.17,1.44-1.12,3.59-1.68,6.47-1.68,2.87,0,5.75.59,8.62,1.77,2.88,1.18,5.81,2.8,8.82,4.84l7.67-11.12c-3.45-2.75-7.23-4.86-11.36-6.32-4.12-1.47-8.64-2.2-13.56-2.2-3.45,0-6.61.48-9.49,1.44-2.88.96-5.35,2.33-7.43,4.12-2.08,1.79-3.69,3.91-4.84,6.37-1.15,2.46-1.73,5.22-1.73,8.29v.19c0,3.32.53,6.1,1.58,8.34,1.05,2.24,2.54,4.11,4.46,5.61,1.92,1.5,4.25,2.76,7,3.79,2.75,1.02,5.81,1.95,9.2,2.78,2.81.7,5.1,1.37,6.85,2.01,1.76.64,3.13,1.28,4.12,1.92.99.64,1.66,1.33,2.01,2.06.35.73.53,1.58.53,2.54v.19c0,1.98-.85,3.53-2.54,4.65-1.69,1.12-4.07,1.68-7.14,1.68-3.83,0-7.36-.73-10.59-2.2-3.23-1.47-6.37-3.45-9.44-5.94l-8.72,10.45c4.02,3.64,8.5,6.34,13.42,8.1,4.92,1.76,9.94,2.64,15.05,2.64,3.64,0,6.96-.46,9.97-1.39,3-.93,5.59-2.27,7.76-4.03,2.17-1.76,3.86-3.93,5.08-6.52,1.21-2.59,1.82-5.54,1.82-8.86h0Z"/>
      <path id="path3559" class="cls-1" d="M53.7,423.18l11.9-38.6h15.6l11.8,38.6,13.3-38.6h16.2l-23.4,67.1h-11.1l-14.7-46.7-14.6,46.7h-11.1l-23.4-67.1h16.2l13.3,38.6Z"/>
      <path id="path3561" class="cls-1" d="M130.6,384.58h15v67.1h-15v-67.1Z"/>
      <path id="path3563" class="cls-1" d="M162.1,384.58h15v27.6l25.3-27.6h18.5l-26.7,29.7c2.3,3.2,6.6,9.2,12.8,17.9,6.2,8.7,10.8,15.2,13.9,19.5h-17.5l-19.6-26.5-6.7,7.5v19h-15v-67.1Z"/>
      <path id="path3565" class="cls-1" d="M230.2,384.58h15v67.1h-15v-67.1Z"/>
      <path id="path3567" class="cls-1" d="M321.8,409.48l-18.1,36.7h-9l-18-36.7v42.2h-15v-67.1h20.3l17.3,36.9,17.4-36.9h20.2v67.1h-15v-42.2h-.1Z"/>
      <path id="path3569" class="cls-1" d="M401.7,384.58v13.3h-33.4v13.8h30v12.8h-30v13.9h34.4v13.2h-49.4v-67.1h48.4v.1Z"/>
      <path id="path3571" class="cls-1" d="M467.3,393.38c6.4,5.9,9.6,14,9.6,24.4s-3.1,18.7-9.4,24.8c-6.2,6.1-15.8,9.1-28.6,9.1h-22.9v-67.1h23.7c12.1,0,21.2,3,27.6,8.8h0ZM456.3,433.28c3.7-3.5,5.5-8.5,5.5-15.1s-1.8-11.7-5.5-15.2c-3.7-3.6-9.3-5.3-16.9-5.3h-8.4v40.8h9.5c6.9,0,12.2-1.7,15.8-5.2h0Z"/>
      <path id="path3573" class="cls-1" d="M489.9,384.58h15v67.1h-15v-67.1Z"/>
      <path id="path3575" class="cls-1" d="M569.2,451.68l-6.2-14.5h-28.1l-6.2,14.5h-15.9l29-67.1h14.5l29,67.1h-16.1ZM548.9,404.58l-8.4,19.5h16.8l-8.4-19.5h0Z"/>
      <g id="text2985">
        <path id="path4585" class="cls-7" d="M595.2,385.55v64.63h12.03v-46.35l38.03,46.35h11.83v-64.63h-11.83v46.44l-38.23-46.44h-11.83Z"/>
      </g>
    </g>
    <g id="text9094">
      <path id="path9096" class="cls-6" d="M210.14,351.77v-49.06h-10.79v49.06h10.79Z"/>
      <path id="path9098" class="cls-6" d="M270.43,351.77l-11.98-17.52c3.13-1.17,5.65-2.99,7.57-5.47,1.96-2.52,2.94-5.77,2.94-9.74v-.14c0-5.09-1.64-9.06-4.91-11.91-3.22-2.85-7.76-4.28-13.6-4.28h-22.43v49.06h10.79v-15.7h8.48l10.51,15.7h12.61ZM258.03,319.6c0,2.1-.72,3.78-2.17,5.05-1.4,1.26-3.43,1.89-6.1,1.89h-10.93v-14.09h10.72c2.66,0,4.74.58,6.24,1.75,1.5,1.17,2.24,2.92,2.24,5.26v.14Z"/>
      <path id="path9100" class="cls-6" d="M332.11,351.77l-21.03-49.41h-9.95l-21.03,49.41h11l4.49-11h20.74l4.49,11h11.28ZM312.48,331.23h-13.04l6.52-15.91,6.52,15.91Z"/>
      <path id="path9102" class="cls-6" d="M388.83,351.77v-49.06h-10.65v30.21l-22.99-30.21h-9.95v49.06h10.65v-31.19l23.76,31.19h9.18Z"/>
      <path id="path9104" class="cls-6" d="M417.46,351.77v-49.06h-10.79v49.06h10.79Z"/>
      <path id="path9106" class="cls-6" d="M483.15,351.77l-21.03-49.41h-9.95l-21.03,49.41h11l4.49-11h20.74l4.49,11h11.28ZM463.52,331.23h-13.04l6.52-15.91,6.52,15.91Z"/>
      <path id="path9108" class="cls-6" d="M539.87,351.77v-49.06h-10.65v30.21l-22.99-30.21h-9.95v49.06h10.65v-31.19l23.76,31.19h9.18Z"/>
    </g>
  </g>
  <g>
    <path id="Red_path" data-name="Red path" class="cls-5" d="M369.65,26.13c-41.37,0-77.92,20.76-99.8,52.42l23.44,13.54c17.14-23.63,44.96-39.02,76.36-39.02s59.22,15.39,76.36,39.02l23.44-13.54c-21.88-31.66-58.43-52.42-99.8-52.42h0Z"/>
    <path id="Blue_path_left" data-name="Blue path left" class="cls-4" d="M257.09,102.31c-5.59,13.93-8.67,29.13-8.67,45.06,0,62.37,47.17,113.79,107.77,120.49v-27.18c-45.67-6.54-80.82-45.84-80.82-93.31,0-11.02,1.89-21.59,5.37-31.42l-23.64-13.64h0Z"/>
    <path id="Blue_path_right" data-name="Blue path right" class="cls-4" d="M482.21,102.31l-23.64,13.64c3.48,9.83,5.37,20.4,5.37,31.42,0,47.48-35.15,86.77-80.82,93.31v27.18c60.59-6.7,107.77-58.13,107.77-120.49,0-15.93-3.08-31.13-8.67-45.06h0Z"/>
    <path id="Up" class="cls-5" d="M369.96,88.09c2.83.17,4.81,5.48,6.02,8.09,1.06,2.52,1.83,5.33.88,7.98-1.02,2.86-3.78,5.47-6.93,5.37-3.77-.27-6.75-3.97-7.08-7.6-.16-1.68.22-3.48.88-5.27,1.19-2.73,3.12-8.2,6.16-8.56h.07,0Z"/>
    <path id="Center" class="cls-3" d="M321.46,97.6c19.88,1.13,35.99,13.25,48.79,27.56,13.11-14.84,30.21-26.55,50.52-27.92-.35,20.62-12.8,37.61-27.53,50.86,14.46,12.76,26.05,28.97,27.88,48.72-19.85-1.48-35.85-13.61-49.03-27.53-13.15,14.88-30.35,26.37-50.65,27.78,1.06-20.45,12.69-37.79,27.81-50.76-14.13-12.93-26.12-28.97-27.78-48.72h0Z"/>
    <path id="Left" class="cls-5" d="M309.78,147.01c.25-3.3,7.24-5.76,10.17-7.03,2.71-1.04,5.78-1.84,8.55-.66,2.68,1.13,5.05,3.9,5.41,6.89.35,3.43-2.27,6.8-5.13,8.33-2.37,1.26-5.13.92-7.61.06-3.08-1.21-11.19-4.11-11.38-7.51v-.07h0Z"/>
    <path id="Right" class="cls-5" d="M414.75,139.5c4.08-1.03,8.92,2.09,12.38,4.28,5.44,3.83.5,6.98-4.15,9.29-1.66.83-3.38,1.65-5.21,2-4.51,1.09-9.3-2.84-9.53-7.34-.11-3.32,3.2-7.29,6.41-8.21l.11-.03h0Z"/>
    <path id="Down" class="cls-5" d="M364.32,191.24c.98-3.27,5-6.64,8.5-6.25,3.77.56,7.51,4.19,7.65,8.14.1,2.36-1.14,5.04-2.48,7.53-1.76,3.01-3.8,7.11-7.22,5.41-1.62-.98-2.64-2.72-3.61-4.38-1.68-3.01-3.86-7.07-2.87-10.35l.03-.11h0Z"/>
  </g>
</svg>